<?xml version="1.0" standalone="no"?>
<!DOCTYPE svg PUBLIC "-//W3C//DTD SVG 20010904//EN"
 "http://www.w3.org/TR/2001/REC-SVG-20010904/DTD/svg10.dtd">
<svg version="1.0" xmlns="http://www.w3.org/2000/svg"
 width="512.000000pt" height="512.000000pt" viewBox="0 0 512.000000 512.000000"
 preserveAspectRatio="xMidYMid meet">

<g transform="translate(0.000000,512.000000) scale(0.100000,-0.100000)"
fill="#000000" stroke="none">
<path d="M4759 4907 c-60 -23 -106 -55 -153 -110 l-45 -52 -808 0 c-801 0
-808 0 -857 -21 -67 -29 -148 -93 -190 -151 -59 -80 -79 -131 -86 -221 -4 -46
-12 -88 -18 -94 -6 -6 -47 -11 -92 -12 -73 -2 -84 -4 -101 -25 -11 -13 -19
-39 -19 -57 0 -30 13 -48 94 -132 52 -53 113 -120 135 -149 42 -54 90 -76 125
-56 9 5 77 76 151 157 123 135 135 151 135 185 0 60 -26 76 -120 77 -83 0
-110 12 -110 46 0 45 33 128 66 167 70 82 2 76 893 79 l793 3 67 -69 c93 -97
173 -121 281 -86 63 21 119 69 155 135 24 45 29 66 29 124 1 81 -19 127 -81
188 -71 72 -169 101 -244 74z m112 -167 c10 -6 26 -27 35 -48 39 -94 -55 -181
-136 -125 -52 36 -62 70 -35 123 28 54 87 76 136 50z"/>
<path d="M205 4356 c-5 -2 -22 -7 -38 -10 -41 -9 -103 -71 -123 -122 -35 -91
11 -195 104 -235 38 -17 71 -19 263 -19 259 0 250 4 269 -111 7 -41 17 -92 22
-114 5 -22 31 -161 58 -310 27 -148 56 -304 65 -345 27 -119 34 -154 65 -340
17 -96 37 -202 45 -235 21 -89 33 -150 70 -360 19 -104 41 -221 50 -260 8 -38
22 -109 30 -158 16 -95 47 -192 78 -246 36 -66 109 -152 150 -179 23 -14 54
-36 69 -48 15 -12 62 -34 105 -48 l78 -26 1272 0 c874 0 1280 3 1300 11 62 23
123 109 123 174 0 42 -32 108 -66 134 -68 54 -3 51 -1320 51 -1213 0 -1224 0
-1279 21 -80 30 -129 101 -146 212 -5 34 -14 83 -21 108 -8 32 -8 51 0 65 10
18 43 19 1259 20 l1248 1 64 21 c117 40 230 119 291 205 67 94 86 140 124 290
20 81 43 164 51 185 8 20 19 55 24 77 5 22 28 110 51 195 22 85 65 248 95 362
29 114 56 211 59 216 8 14 54 192 66 258 21 121 -23 214 -108 229 -60 10 -98
-2 -138 -42 -44 -44 -65 -91 -93 -211 -12 -51 -26 -104 -32 -119 -5 -14 -32
-112 -59 -217 -27 -105 -57 -216 -66 -246 -9 -30 -35 -131 -59 -225 -24 -93
-50 -190 -58 -215 -8 -25 -22 -79 -32 -120 -35 -146 -82 -213 -180 -255 -37
-15 -136 -16 -1265 -15 l-1224 1 -44 25 c-24 14 -52 39 -62 56 -20 33 -44 135
-55 228 -4 30 -11 69 -16 85 -25 85 -45 182 -84 410 -18 108 -36 197 -65 325
-12 52 -28 132 -35 178 -66 377 -79 430 -130 502 -42 60 -114 113 -205 152
l-75 31 -230 3 c-126 2 -234 2 -240 0z"/>
<path d="M1800 3463 c-39 -14 -130 -135 -130 -172 0 -8 51 -11 188 -9 l187 3
3 80 c4 103 1 105 -132 104 -56 0 -108 -3 -116 -6z"/>
<path d="M2123 3464 c-9 -4 -13 -33 -13 -95 l0 -89 190 0 c146 0 190 3 189 13
-1 21 -74 130 -101 150 -22 16 -46 20 -140 23 -62 2 -119 1 -125 -2z"/>
<path d="M3060 3463 c-27 -10 -71 -57 -106 -114 -19 -31 -34 -59 -34 -63 0 -4
87 -5 193 -4 l192 3 3 84 c2 61 -1 87 -10 92 -14 9 -214 11 -238 2z"/>
<path d="M3378 3464 c-5 -4 -8 -47 -8 -96 l0 -88 190 0 c105 0 190 3 190 8 0
4 -17 36 -37 71 -57 96 -70 103 -210 109 -65 2 -121 1 -125 -4z"/>
<path d="M1658 3078 c-5 -239 2 -263 84 -279 42 -8 633 -2 693 7 57 8 65 38
65 243 l0 181 -419 0 -419 0 -4 -152z"/>
<path d="M2920 3037 c0 -219 0 -218 77 -235 67 -15 692 -3 724 14 34 17 39 47
39 252 l0 162 -420 0 -420 0 0 -193z"/>
<path d="M1525 955 c-83 -16 -152 -54 -207 -113 -61 -65 -86 -116 -100 -207
-13 -85 -1 -181 32 -245 32 -63 113 -138 187 -173 62 -29 76 -32 163 -32 85 1
102 4 162 32 114 54 198 161 217 279 12 77 -1 185 -29 249 -28 60 -110 144
-170 172 -40 19 -170 55 -188 52 -4 -1 -34 -7 -67 -14z"/>
<path d="M3794 955 c-187 -40 -314 -195 -314 -381 0 -158 84 -288 230 -358 59
-28 74 -31 160 -31 85 1 102 4 160 31 82 39 152 110 193 194 29 59 32 74 32
160 0 91 -2 99 -39 173 -58 117 -142 180 -276 211 -40 9 -75 16 -79 15 -3 0
-34 -7 -67 -14z"/>
</g>
</svg>
